<svg width="27" height="27" viewBox="0 0 27 27" fill="none" xmlns="http://www.w3.org/2000/svg">
<g clip-path="url(#clip0_673_105)">
<path fill-rule="evenodd" clip-rule="evenodd" d="M26.2035 5.01693C26.4384 5.11069 26.6399 5.27269 26.7818 5.48204C26.9238 5.69139 26.9998 5.93848 27 6.19143V20.8086C26.9998 21.0615 26.9238 21.3086 26.7818 21.5179C26.6399 21.7273 26.4384 21.8893 26.2035 21.9831L13.9691 26.8768C13.6674 26.9975 13.3309 26.9975 13.0292 26.8768L0.794813 21.9831C0.560198 21.889 0.359109 21.7269 0.217452 21.5176C0.0757951 21.3083 5.88261e-05 21.0613 0 20.8086L0 6.19143C5.88261e-05 5.93867 0.0757951 5.69173 0.217452 5.4824C0.359109 5.27307 0.560198 5.11095 0.794813 5.01693L12.5601 0.310492L12.5668 0.308804L13.0292 0.123179C13.3314 0.00207181 13.6686 0.00207181 13.9708 0.123179L14.4332 0.308804L14.4399 0.310492L26.2035 5.01693ZM23.8849 5.90624L13.5 10.0609L3.11512 5.90624L1.6875 6.4783V7.1533L12.6562 11.5408V24.9092L13.5 25.2467L14.3438 24.9092V11.5425L25.3125 7.15499V6.47999L23.8849 5.90624Z" fill="#979696"/>
</g>
<defs>
<clipPath id="clip0_673_105">
<rect width="27" height="27" fill="white"/>
</clipPath>
</defs>
</svg>
