<svg width="32" height="32" viewBox="0 0 32 32" fill="none" xmlns="http://www.w3.org/2000/svg">
<path fill-rule="evenodd" clip-rule="evenodd" d="M16 28.8C19.3948 28.8 22.6505 27.4514 25.051 25.051C27.4514 22.6505 28.8 19.3948 28.8 16C28.8 12.6052 27.4514 9.34951 25.051 6.94905C22.6505 4.54858 19.3948 3.20001 16 3.20001C12.6052 3.20001 9.34951 4.54858 6.94905 6.94905C4.54858 9.34951 3.20001 12.6052 3.20001 16C3.20001 19.3948 4.54858 22.6505 6.94905 25.051C9.34951 27.4514 12.6052 28.8 16 28.8ZM9.60001 9.20001C9.60001 8.88175 9.72644 8.57653 9.95148 8.35148C10.1765 8.12644 10.4818 8.00001 10.8 8.00001H21.2C21.5183 8.00001 21.8235 8.12644 22.0485 8.35148C22.2736 8.57653 22.4 8.88175 22.4 9.20001C22.4 9.51827 22.2736 9.8235 22.0485 10.0485C21.8235 10.2736 21.5183 10.4 21.2 10.4H17.7968C18.4368 11.2 18.8896 12.1536 19.088 13.2H21.2C21.5183 13.2 21.8235 13.3264 22.0485 13.5515C22.2736 13.7765 22.4 14.0818 22.4 14.4C22.4 14.7183 22.2736 15.0235 22.0485 15.2485C21.8235 15.4736 21.5183 15.6 21.2 15.6H19.088C18.8354 16.9209 18.1733 18.1288 17.1958 19.0523C16.2182 19.9759 14.9747 20.5683 13.6416 20.7456L16.448 23.552C16.66 23.7795 16.7754 24.0804 16.7699 24.3912C16.7644 24.7021 16.6385 24.9987 16.4186 25.2186C16.1987 25.4385 15.9021 25.5644 15.5912 25.5699C15.2804 25.5754 14.9795 25.46 14.752 25.248L9.95201 20.448C9.7844 20.2802 9.67028 20.0665 9.62407 19.8338C9.57785 19.6012 9.60161 19.3601 9.69235 19.1409C9.78309 18.9218 9.93674 18.7345 10.1339 18.6026C10.331 18.4707 10.5628 18.4002 10.8 18.4H12.8C14.592 18.4 16.1072 17.2224 16.6176 15.6H10.8C10.4818 15.6 10.1765 15.4736 9.95148 15.2485C9.72644 15.0235 9.60001 14.7183 9.60001 14.4C9.60001 14.0818 9.72644 13.7765 9.95148 13.5515C10.1765 13.3264 10.4818 13.2 10.8 13.2H16.6176C16.3619 12.3879 15.8539 11.6784 15.1673 11.1749C14.4807 10.6713 13.6515 10.3999 12.8 10.4H10.8C10.4818 10.4 10.1765 10.2736 9.95148 10.0485C9.72644 9.8235 9.60001 9.51827 9.60001 9.20001Z" fill="#979696"/>
</svg>
