<svg width="14" height="15" viewBox="0 0 14 15" fill="none" xmlns="http://www.w3.org/2000/svg">
<path d="M6.3111 4.06264H8.4361C8.4361 3.74769 8.32415 3.44565 8.1249 3.22295C7.92564 3.00025 7.65539 2.87514 7.3736 2.87514C7.0918 2.87514 6.82155 3.00025 6.62229 3.22295C6.42304 3.44565 6.3111 3.74769 6.3111 4.06264ZM5.2486 4.06264C5.2486 3.43275 5.47248 2.82866 5.87099 2.38326C6.26951 1.93786 6.81001 1.68764 7.3736 1.68764C7.93718 1.68764 8.47768 1.93786 8.8762 2.38326C9.27471 2.82866 9.4986 3.43275 9.4986 4.06264H12.1548C12.2957 4.06264 12.4309 4.12519 12.5305 4.23654C12.6301 4.34789 12.6861 4.49891 12.6861 4.65639C12.6861 4.81386 12.6301 4.96488 12.5305 5.07623C12.4309 5.18758 12.2957 5.25014 12.1548 5.25014H11.6863L11.2156 11.3895C11.1703 11.9823 10.9276 12.5346 10.5355 12.937C10.1434 13.3394 9.63039 13.5627 9.09803 13.5626H5.64916C5.1168 13.5627 4.6038 13.3394 4.21168 12.937C3.81955 12.5346 3.57685 11.9823 3.5316 11.3895L3.06091 5.25014H2.59235C2.45145 5.25014 2.31632 5.18758 2.2167 5.07623C2.11707 4.96488 2.0611 4.81386 2.0611 4.65639C2.0611 4.49891 2.11707 4.34789 2.2167 4.23654C2.31632 4.12519 2.45145 4.06264 2.59235 4.06264H5.2486ZM8.96735 7.62514C8.96735 7.46766 8.91137 7.31664 8.81175 7.20529C8.71212 7.09394 8.57699 7.03139 8.4361 7.03139C8.2952 7.03139 8.16007 7.09394 8.06045 7.20529C7.96082 7.31664 7.90485 7.46766 7.90485 7.62514V10.0001C7.90485 10.1576 7.96082 10.3086 8.06045 10.42C8.16007 10.5313 8.2952 10.5939 8.4361 10.5939C8.57699 10.5939 8.71212 10.5313 8.81175 10.42C8.91137 10.3086 8.96735 10.1576 8.96735 10.0001V7.62514ZM6.3111 7.03139C6.1702 7.03139 6.03507 7.09394 5.93545 7.20529C5.83582 7.31664 5.77985 7.46766 5.77985 7.62514V10.0001C5.77985 10.1576 5.83582 10.3086 5.93545 10.42C6.03507 10.5313 6.1702 10.5939 6.3111 10.5939C6.45199 10.5939 6.58712 10.5313 6.68675 10.42C6.78637 10.3086 6.84235 10.1576 6.84235 10.0001V7.62514C6.84235 7.46766 6.78637 7.31664 6.68675 7.20529C6.58712 7.09394 6.45199 7.03139 6.3111 7.03139Z" fill="white"/>
</svg>
