<svg width="29" height="29" viewBox="0 0 29 29" fill="none" xmlns="http://www.w3.org/2000/svg">
<g clip-path="url(#clip0_673_115)">
<path fill-rule="evenodd" clip-rule="evenodd" d="M14.5 2.41666C21.1736 2.41666 26.5834 7.82636 26.5834 14.5C26.5834 21.1736 21.1736 26.5833 14.5 26.5833C7.8264 26.5833 2.41669 21.1736 2.41669 14.5C2.41669 7.82636 7.8264 2.41666 14.5 2.41666ZM19.9375 12.6875C19.4568 12.6875 18.9958 12.8784 18.6559 13.2184C18.316 13.5583 18.125 14.0193 18.125 14.5C18.125 14.9807 18.316 15.4417 18.6559 15.7816C18.9958 16.1215 19.4568 16.3125 19.9375 16.3125C20.4182 16.3125 20.8792 16.1215 21.2191 15.7816C21.5591 15.4417 21.75 14.9807 21.75 14.5C21.75 14.0193 21.5591 13.5583 21.2191 13.2184C20.8792 12.8784 20.4182 12.6875 19.9375 12.6875ZM14.5 12.6875C14.0193 12.6875 13.5583 12.8784 13.2184 13.2184C12.8785 13.5583 12.6875 14.0193 12.6875 14.5C12.6875 14.9807 12.8785 15.4417 13.2184 15.7816C13.5583 16.1215 14.0193 16.3125 14.5 16.3125C14.9807 16.3125 15.4417 16.1215 15.7817 15.7816C16.1216 15.4417 16.3125 14.9807 16.3125 14.5C16.3125 14.0193 16.1216 13.5583 15.7817 13.2184C15.4417 12.8784 14.9807 12.6875 14.5 12.6875ZM9.06252 12.6875C8.58182 12.6875 8.1208 12.8784 7.78089 13.2184C7.44098 13.5583 7.25002 14.0193 7.25002 14.5C7.25002 14.9807 7.44098 15.4417 7.78089 15.7816C8.1208 16.1215 8.58182 16.3125 9.06252 16.3125C9.54322 16.3125 10.0042 16.1215 10.3442 15.7816C10.6841 15.4417 10.875 14.9807 10.875 14.5C10.875 14.0193 10.6841 13.5583 10.3442 13.2184C10.0042 12.8784 9.54322 12.6875 9.06252 12.6875Z" fill="#979696"/>
</g>
<defs>
<clipPath id="clip0_673_115">
<rect width="29" height="29" fill="white"/>
</clipPath>
</defs>
</svg>
